
<global>
amp_veltrack=0
ampeg_release=0.65
</global>

<group>
group_label=PP
seq_length=1
seq_position=1
xf_cccurve=gain
xfin_hicc1=42
xfout_hicc1=85
xfout_locc1=42

<region>
hikey=g6
hivel=127
lokey=f#6
loop_end=308523
loop_mode=loop_continuous
loop_start=76372
loop_xfade=23062
lovel=0
offset=22637
pitch_keycenter=g6
release_start=305142
release_xfade=11828
sample=Violins2_trill_maj3rd_PP_G6.opus
</region>

<region>
end=353388
hikey=g5
hivel=127
lokey=f#5
loop_end=308523
loop_mode=loop_continuous
loop_start=76372
loop_xfade=23062
lovel=0
offset=17582
pitch_keycenter=g5
release_start=311802
release_xfade=13354
sample=Violins2_trill_maj3rd_PP_G5.opus
</region>

<region>
end=366071
hikey=g4
hivel=127
lokey=f#4
loop_end=305586
loop_mode=loop_continuous
loop_start=75645
loop_xfade=22842
lovel=0
offset=14768
pitch_keycenter=g4
release_start=318592
release_xfade=14375
sample=Violins2_trill_maj3rd_PP_G4.opus
</region>

<region>
hivel=127
key=g3
loop_end=307829
loop_mode=loop_continuous
loop_start=76200
loop_xfade=23010
lovel=0
offset=10600
release_start=313268
release_xfade=12143
sample=Violins2_trill_maj3rd_PP_G3.opus
</region>

<region>
hikey=f6
hivel=127
lokey=e6
loop_end=308523
loop_mode=loop_continuous
loop_start=76372
loop_xfade=23062
lovel=0
offset=16609
pitch_keycenter=f6
release_start=307565
release_xfade=11922
sample=Violins2_trill_maj3rd_PP_F6.opus
</region>

<region>
end=364025
hikey=f5
hivel=127
lokey=e5
loop_end=305464
loop_mode=loop_continuous
loop_start=76372
loop_xfade=23062
lovel=0
offset=16507
pitch_keycenter=f5
release_start=312112
release_xfade=14513
sample=Violins2_trill_maj3rd_PP_F5.opus
</region>

<region>
hikey=f4
hivel=127
lokey=e4
loop_end=308523
loop_mode=loop_continuous
loop_start=76372
loop_xfade=23062
lovel=0
offset=17729
pitch_keycenter=f4
release_start=310004
release_xfade=12017
sample=Violins2_trill_maj3rd_PP_F4.opus
</region>

<region>
hikey=d#6
hivel=127
lokey=d6
loop_end=308523
loop_mode=loop_continuous
loop_start=76372
loop_xfade=23062
lovel=0
offset=15555
pitch_keycenter=d#6
release_start=306075
release_xfade=11864
sample=Violins2_trill_maj3rd_PP_D#6.opus
</region>

<region>
end=359414
hikey=d#5
hivel=127
lokey=d5
loop_end=301405
loop_mode=loop_continuous
loop_start=76372
loop_xfade=23062
lovel=0
offset=18801
pitch_keycenter=d#5
release_start=308604
release_xfade=14496
sample=Violins2_trill_maj3rd_PP_D#5.opus
</region>

<region>
hikey=d#4
hivel=127
lokey=d4
loop_end=308405
loop_mode=loop_continuous
loop_start=76343
loop_xfade=23053
lovel=0
offset=10153
pitch_keycenter=d#4
release_start=308970
release_xfade=11977
sample=Violins2_trill_maj3rd_PP_D#4.opus
</region>

<region>
hikey=c#6
hivel=127
lokey=c6
loop_end=308523
loop_mode=loop_continuous
loop_start=76372
loop_xfade=23062
lovel=0
offset=13459
pitch_keycenter=c#6
release_start=293318
release_xfade=11370
sample=Violins2_trill_maj3rd_PP_C#6.opus
</region>

<region>
hikey=c#5
hivel=127
lokey=c5
loop_end=305013
loop_mode=loop_continuous
loop_start=75503
loop_xfade=22800
lovel=0
offset=6668
pitch_keycenter=c#5
release_start=311498
release_xfade=12075
sample=Violins2_trill_maj3rd_PP_C#5.opus
</region>

<region>
hikey=c#4
hivel=127
lokey=c4
loop_end=278004
loop_mode=loop_continuous
loop_start=68818
loop_xfade=20781
lovel=0
offset=6973
pitch_keycenter=c#4
release_start=309141
release_xfade=12172
sample=Violins2_trill_maj3rd_PP_C#4.opus
</region>

<region>
hikey=b5
hivel=127
lokey=a#5
loop_end=308523
loop_mode=loop_continuous
loop_start=76372
loop_xfade=23062
lovel=0
offset=15609
pitch_keycenter=b5
release_start=308347
release_xfade=11953
sample=Violins2_trill_maj3rd_PP_B5.opus
</region>

<region>
hikey=b4
hivel=127
lokey=a#4
loop_end=308523
loop_mode=loop_continuous
loop_start=76372
loop_xfade=23062
lovel=0
offset=13364
pitch_keycenter=b4
release_start=311893
release_xfade=12090
sample=Violins2_trill_maj3rd_PP_B4.opus
</region>

<region>
hikey=b3
hivel=127
lokey=a#3
loop_end=308523
loop_mode=loop_continuous
loop_start=76372
loop_xfade=23062
lovel=0
offset=11916
pitch_keycenter=b3
release_start=308139
release_xfade=11944
sample=Violins2_trill_maj3rd_PP_B3.opus
</region>

<region>
hikey=a6
hivel=127
lokey=g#6
loop_end=308523
loop_mode=loop_continuous
loop_start=76372
loop_xfade=23062
lovel=0
offset=22753
pitch_keycenter=A6
release_start=298935
release_xfade=11324
sample=Violins2_trill_maj3rd_PP_A6.opus
</region>

<region>
hikey=a5
hivel=127
lokey=g#5
loop_end=308523
loop_mode=loop_continuous
loop_start=76372
loop_xfade=23062
lovel=0
offset=14933
pitch_keycenter=a5
release_start=306062
release_xfade=11864
sample=Violins2_trill_maj3rd_PP_A5.opus
</region>

<region>
hikey=a4
hivel=127
lokey=g#4
loop_end=307569
loop_mode=loop_continuous
loop_start=76136
loop_xfade=22991
lovel=0
offset=18563
pitch_keycenter=a4
release_start=313482
release_xfade=12152
sample=Violins2_trill_maj3rd_PP_A4.opus
</region>

<region>
hikey=a3
hivel=127
lokey=g#3
loop_end=306534
loop_mode=loop_continuous
loop_start=75880
loop_xfade=22913
lovel=0
offset=15347
pitch_keycenter=a3
release_start=308073
release_xfade=11942
sample=Violins2_trill_maj3rd_PP_A3.opus
</region>
</group>

<group>
group_label=MF
seq_length=1
seq_position=1
xf_cccurve=gain
xfin_hicc1=85
xfin_locc1=42
xfout_hicc1=127
xfout_locc1=85

<region>
hikey=g6
hivel=127
lokey=f#6
loop_end=260883
loop_mode=loop_continuous
loop_start=64579
loop_xfade=19501
lovel=0
offset=963
pitch_keycenter=g6
release_start=286104
release_xfade=11090
sample=Violins2_trill_maj3rd_MF_G6.opus
</region>

<region>
hikey=g5
hivel=127
lokey=f#5
loop_end=302325
loop_mode=loop_continuous
loop_start=74838
loop_xfade=22599
lovel=0
offset=13916
pitch_keycenter=g5
release_start=306870
release_xfade=11895
sample=Violins2_trill_maj3rd_MF_G5.opus
</region>

<region>
hikey=g4
hivel=127
lokey=f#4
loop_end=268991
loop_mode=loop_continuous
loop_start=66586
loop_xfade=20107
lovel=0
offset=1449
pitch_keycenter=g4
release_start=296494
release_xfade=11493
sample=Violins2_trill_maj3rd_MF_G4.opus
</region>

<region>
hivel=127
key=g3
loop_end=293516
loop_mode=loop_continuous
loop_start=72657
loop_xfade=21940
lovel=0
release_start=290078
release_xfade=11244
sample=Violins2_trill_maj3rd_MF_G3.opus
</region>

<region>
end=359263
hikey=f6
hivel=127
lokey=e6
loop_end=306885
loop_mode=loop_continuous
loop_start=75967
loop_xfade=22940
lovel=0
offset=16428
pitch_keycenter=f6
release_start=298932
release_xfade=11588
sample=Violins2_trill_maj3rd_MF_F6.opus
</region>

<region>
hikey=f5
hivel=127
lokey=e5
loop_end=296067
loop_mode=loop_continuous
loop_start=73289
loop_xfade=22131
lovel=0
offset=216
pitch_keycenter=f5
release_start=288928
release_xfade=11200
sample=Violins2_trill_maj3rd_MF_F5.opus
</region>

<region>
hikey=f4
hivel=127
lokey=e4
loop_end=267710
loop_mode=loop_continuous
loop_start=66269
loop_xfade=20011
lovel=0
offset=872
pitch_keycenter=f4
release_start=298007
release_xfade=11552
sample=Violins2_trill_maj3rd_MF_F4.opus
</region>

<region>
hikey=d#6
hivel=127
lokey=d6
loop_end=289852
loop_mode=loop_continuous
loop_start=71750
loop_xfade=21666
lovel=0
offset=99
pitch_keycenter=d#6
release_start=280190
release_xfade=10861
sample=Violins2_trill_maj3rd_MF_D#6.opus
</region>

<region>
hikey=d#5
hivel=127
lokey=d5
loop_end=287978
loop_mode=loop_continuous
loop_start=71286
loop_xfade=21526
lovel=0
offset=2499
pitch_keycenter=d#5
release_start=282658
release_xfade=10957
sample=Violins2_trill_maj3rd_MF_D#5.opus
</region>

<region>
hikey=d#4
hivel=127
lokey=d4
loop_end=266387
loop_mode=loop_continuous
loop_start=65942
loop_xfade=19912
lovel=0
offset=113
pitch_keycenter=d#4
release_start=293229
release_xfade=11366
sample=Violins2_trill_maj3rd_MF_D#4.opus
</region>

<region>
hikey=c#6
hivel=127
lokey=c6
loop_end=260027
loop_mode=loop_continuous
loop_start=64367
loop_xfade=19437
lovel=0
offset=1264
pitch_keycenter=c#6
release_start=292569
release_xfade=11341
sample=Violins2_trill_maj3rd_MF_C#6.opus
</region>

<region>
hikey=c#5
hivel=127
lokey=c5
loop_end=294273
loop_mode=loop_continuous
loop_start=72845
loop_xfade=21997
lovel=0
offset=654
pitch_keycenter=c#5
release_start=288804
release_xfade=11195
sample=Violins2_trill_maj3rd_MF_C#5.opus
</region>

<region>
hikey=c#4
hivel=127
lokey=c4
loop_end=264769
loop_mode=loop_continuous
loop_start=65541
loop_xfade=19791
lovel=0
offset=1244
pitch_keycenter=c#4
release_start=301517
release_xfade=11688
sample=Violins2_trill_maj3rd_MF_C#4.opus
</region>

<region>
hikey=b5
hivel=127
lokey=a#5
loop_end=265625
loop_mode=loop_continuous
loop_start=65753
loop_xfade=19855
lovel=0
offset=991
pitch_keycenter=b5
release_start=290454
release_xfade=11259
sample=Violins2_trill_maj3rd_MF_B5.opus
</region>

<region>
hikey=b4
hivel=127
lokey=a#4
loop_end=300623
loop_mode=loop_continuous
loop_start=74417
loop_xfade=22471
lovel=0
offset=14524
pitch_keycenter=b4
release_start=315570
release_xfade=12233
sample=Violins2_trill_maj3rd_MF_B4.opus
</region>

<region>
hikey=b3
hivel=127
lokey=a#3
loop_end=263219
loop_mode=loop_continuous
loop_start=65158
loop_xfade=19675
lovel=0
offset=291
pitch_keycenter=b3
release_start=292437
release_xfade=11336
sample=Violins2_trill_maj3rd_MF_B3.opus
</region>

<region>
hikey=a6
hivel=127
lokey=g#6
loop_end=269774
loop_mode=loop_continuous
loop_start=66780
loop_xfade=20166
lovel=0
offset=13197
pitch_keycenter=A6
release_start=303767
release_xfade=11775
sample=Violins2_trill_maj3rd_MF_A6.opus
</region>

<region>
hikey=a5
hivel=127
lokey=g#5
loop_end=283774
loop_mode=loop_continuous
loop_start=70246
loop_xfade=21212
lovel=0
offset=1876
pitch_keycenter=a5
release_start=294435
release_xfade=11413
sample=Violins2_trill_maj3rd_MF_A5.opus
</region>

<region>
hikey=a4
hivel=127
lokey=g#4
loop_end=281010
loop_mode=loop_continuous
loop_start=69561
loop_xfade=21005
lovel=0
offset=1092
pitch_keycenter=a4
release_start=289372
release_xfade=11217
sample=Violins2_trill_maj3rd_MF_A4.opus
</region>

<region>
hikey=a3
hivel=127
lokey=g#3
loop_end=274432
loop_mode=loop_continuous
loop_start=67933
loop_xfade=20514
lovel=0
pitch_keycenter=a3
release_start=294198
release_xfade=11404
sample=Violins2_trill_maj3rd_MF_A3.opus
</region>
</group>

<group>
group_label=FF
seq_length=1
seq_position=1
xf_cccurve=gain
xfin_hicc1=127
xfin_locc1=85
xfout_hicc1=127
xfout_locc1=127

<region>
hikey=g6
hivel=127
lokey=f#6
loop_end=270008
loop_mode=loop_continuous
loop_start=66838
loop_xfade=20183
lovel=0
offset=2413
pitch_keycenter=g6
release_start=296522
release_xfade=11494
sample=Violins2_trill_maj3rd_FF_G6.opus
</region>

<region>
hikey=g5
hivel=127
lokey=f#5
loop_end=264688
loop_mode=loop_continuous
loop_start=65521
loop_xfade=19785
lovel=0
offset=70
pitch_keycenter=g5
release_start=301401
release_xfade=11683
sample=Violins2_trill_maj3rd_FF_G5.opus
</region>

<region>
hikey=g4
hivel=127
lokey=f#4
loop_end=265094
loop_mode=loop_continuous
loop_start=65622
loop_xfade=19816
lovel=0
offset=5
pitch_keycenter=g4
release_start=300538
release_xfade=11650
sample=Violins2_trill_maj3rd_FF_G4.opus
</region>

<region>
hivel=127
key=g3
loop_end=266819
loop_mode=loop_continuous
loop_start=66049
loop_xfade=19945
lovel=0
offset=1217
release_start=294560
release_xfade=11418
sample=Violins2_trill_maj3rd_FF_G3.opus
</region>

<region>
hikey=f6
hivel=127
lokey=e6
loop_end=265580
loop_mode=loop_continuous
loop_start=65742
loop_xfade=19852
lovel=0
offset=3282
pitch_keycenter=f6
release_start=306073
release_xfade=11864
sample=Violins2_trill_maj3rd_FF_F6.opus
</region>

<region>
hikey=f5
hivel=127
lokey=e5
loop_end=264392
loop_mode=loop_continuous
loop_start=65448
loop_xfade=19763
lovel=0
offset=1070
pitch_keycenter=f5
release_start=299775
release_xfade=11620
sample=Violins2_trill_maj3rd_FF_F5.opus
</region>

<region>
hikey=f4
hivel=127
lokey=e4
loop_end=266434
loop_mode=loop_continuous
loop_start=65953
loop_xfade=19916
lovel=0
pitch_keycenter=f4
release_start=301468
release_xfade=11686
sample=Violins2_trill_maj3rd_FF_F4.opus
</region>

<region>
hikey=d#6
hivel=127
lokey=d6
loop_end=273488
loop_mode=loop_continuous
loop_start=67700
loop_xfade=20443
lovel=0
pitch_keycenter=d#6
release_start=302435
release_xfade=11723
sample=Violins2_trill_maj3rd_FF_D#6.opus
</region>

<region>
hikey=d#5
hivel=127
lokey=d5
loop_end=264305
loop_mode=loop_continuous
loop_start=65426
loop_xfade=19757
lovel=0
offset=130
pitch_keycenter=d#5
release_start=304355
release_xfade=11798
sample=Violins2_trill_maj3rd_FF_D#5.opus
</region>

<region>
hikey=d#4
hivel=127
lokey=d4
loop_end=270243
loop_mode=loop_continuous
loop_start=66896
loop_xfade=20201
lovel=0
offset=162
pitch_keycenter=d#4
release_start=307014
release_xfade=11901
sample=Violins2_trill_maj3rd_FF_D#4.opus
</region>

<region>
hikey=c#6
hivel=127
lokey=c6
loop_end=258602
loop_mode=loop_continuous
loop_start=64015
loop_xfade=19330
lovel=0
offset=135
pitch_keycenter=c#6
release_start=293914
release_xfade=11393
sample=Violins2_trill_maj3rd_FF_C#6.opus
</region>

<region>
hikey=c#5
hivel=127
lokey=c5
loop_end=264024
loop_mode=loop_continuous
loop_start=65357
loop_xfade=19736
lovel=0
offset=29
pitch_keycenter=c#5
release_start=298596
release_xfade=11575
sample=Violins2_trill_maj3rd_FF_C#5.opus
</region>

<region>
hikey=c#4
hivel=127
lokey=c4
loop_end=266169
loop_mode=loop_continuous
loop_start=65888
loop_xfade=19896
lovel=0
offset=240
pitch_keycenter=c#4
release_start=303812
release_xfade=11777
sample=Violins2_trill_maj3rd_FF_C#4.opus
</region>

<region>
hikey=b5
hivel=127
lokey=a#5
loop_end=264344
loop_mode=loop_continuous
loop_start=65436
loop_xfade=19760
lovel=0
offset=517
pitch_keycenter=b5
release_start=299790
release_xfade=11621
sample=Violins2_trill_maj3rd_FF_B5.opus
</region>

<region>
hikey=b4
hivel=127
lokey=a#4
loop_end=263391
loop_mode=loop_continuous
loop_start=65200
loop_xfade=19688
lovel=0
offset=586
pitch_keycenter=b4
release_start=297977
release_xfade=11551
sample=Violins2_trill_maj3rd_FF_B4.opus
</region>

<region>
hikey=b3
hivel=127
lokey=a#3
loop_end=262678
loop_mode=loop_continuous
loop_start=65024
loop_xfade=19635
lovel=0
offset=101
pitch_keycenter=b3
release_start=302455
release_xfade=11724
sample=Violins2_trill_maj3rd_FF_B3.opus
</region>

<region>
hikey=a6
hivel=127
lokey=g#6
loop_end=264390
loop_mode=loop_continuous
loop_start=65447
loop_xfade=19763
lovel=0
offset=146
pitch_keycenter=A6
release_start=296878
release_xfade=11508
sample=Violins2_trill_maj3rd_FF_A6.opus
</region>

<region>
hikey=a5
hivel=127
lokey=g#5
loop_end=266262
loop_mode=loop_continuous
loop_start=65911
loop_xfade=19903
lovel=0
offset=1220
pitch_keycenter=a5
release_start=299343
release_xfade=11603
sample=Violins2_trill_maj3rd_FF_A5.opus
</region>

<region>
hikey=a4
hivel=127
lokey=g#4
loop_end=267570
loop_mode=loop_continuous
loop_start=66235
loop_xfade=20001
lovel=0
offset=293
pitch_keycenter=a4
release_start=301827
release_xfade=11700
sample=Violins2_trill_maj3rd_FF_A4.opus
</region>

<region>
hikey=a3
hivel=127
lokey=g#3
loop_end=261605
loop_mode=loop_continuous
loop_start=64758
loop_xfade=19555
lovel=0
offset=221
pitch_keycenter=a3
release_start=291682
release_xfade=11306
sample=Violins2_trill_maj3rd_FF_A3.opus
</region>
</group>